<svg xmlns="http://www.w3.org/2000/svg" viewBox="0 0 64 64" fill="none" stroke="#5B8FB9" stroke-width="1.75" stroke-linecap="square" stroke-linejoin="miter" aria-hidden="true">
  <line x1="14" y1="36" x2="4" y2="42"/>
  <path d="M2 40 L2 48 L8 48 L8 42"/>
  <path d="M22 20 L22 36 L40 36 L40 20 L36 16 L26 16 Z"/>
  <line x1="31" y1="20" x2="31" y2="36"/>
  <rect x="14" y="36" width="38" height="10"/>
  <line x1="48" y1="36" x2="56" y2="20"/>
  <line x1="56" y1="20" x2="60" y2="30"/>
  <path d="M58 30 L62 30 L60 38 L56 38 Z"/>
  <circle cx="20" cy="52" r="6"/>
  <circle cx="44" cy="52" r="6"/>
  <circle cx="20" cy="52" r="2"/>
  <circle cx="44" cy="52" r="2"/>
</svg>
