<svg xmlns="http://www.w3.org/2000/svg" viewBox="0 0 64 64" fill="none" stroke="#5B8FB9" stroke-width="1.75" stroke-linecap="square" stroke-linejoin="miter" aria-hidden="true">
  <path d="M14 18 L14 32 L26 32 L26 22 L22 18 Z"/>
  <line x1="20" y1="22" x2="20" y2="32"/>
  <rect x="6" y="32" width="28" height="6"/>
  <line x1="22" y1="32" x2="38" y2="14"/>
  <line x1="38" y1="14" x2="52" y2="28"/>
  <line x1="38" y1="14" x2="36" y2="20"/>
  <path d="M50 26 L58 28 L56 36 L46 34 Z"/>
  <path d="M2 44 L8 38 L34 38 L40 44 L40 52 L2 52 Z"/>
  <circle cx="8" cy="52" r="3"/>
  <circle cx="34" cy="52" r="3"/>
  <line x1="5" y1="55" x2="37" y2="55"/>
  <circle cx="14" cy="49" r="1.5"/>
  <circle cx="22" cy="49" r="1.5"/>
  <circle cx="28" cy="49" r="1.5"/>
</svg>
