<svg xmlns="http://www.w3.org/2000/svg" viewBox="0 0 64 64" fill="none" stroke="#5B8FB9" stroke-width="1.75" stroke-linecap="square" stroke-linejoin="miter" aria-hidden="true">
  <path d="M4 30 L4 42 L14 42 L14 32 L10 30 Z"/>
  <line x1="9" y1="32" x2="9" y2="38"/>
  <rect x="14" y="36" width="38" height="6"/>
  <rect x="2" y="42" width="56" height="4"/>
  <rect x="22" y="28" width="10" height="8"/>
  <line x1="27" y1="28" x2="58" y2="6"/>
  <line x1="32" y1="28" x2="60" y2="8"/>
  <line x1="58" y1="6" x2="60" y2="8"/>
  <line x1="58" y1="6" x2="58" y2="14"/>
  <rect x="55" y="14" width="6" height="3"/>
  <line x1="58" y1="17" x2="58" y2="20"/>
  <circle cx="10" cy="50" r="4"/>
  <circle cx="22" cy="50" r="4"/>
  <circle cx="40" cy="50" r="4"/>
  <circle cx="50" cy="50" r="4"/>
  <circle cx="10" cy="50" r="1.5"/>
  <circle cx="22" cy="50" r="1.5"/>
  <circle cx="40" cy="50" r="1.5"/>
  <circle cx="50" cy="50" r="1.5"/>
</svg>
